<svg width="45" height="30" viewBox="0 0 45 30" fill="none" xmlns="http://www.w3.org/2000/svg">
<path d="M44.7417 17.8198L39.0836 27.5194C38.6433 28.2742 38.0128 28.9005 37.2551 29.3357C36.4973 29.771 35.6387 30 34.7648 30H3.51758C2.07047 30 1.16883 28.4302 1.89797 27.1802L7.5561 17.4806C7.99643 16.7258 8.62691 16.0995 9.3847 15.6643C10.1425 15.229 11.0011 15 11.875 15H43.1222C44.5693 15 45.4709 16.5698 44.7417 17.8198ZM11.875 12.5H37.5V8.75C37.5 6.67891 35.8211 5 33.75 5H21.25L16.25 0H3.75C1.67891 0 0 1.67891 0 3.75V25.4723L5.39664 16.2209C6.73547 13.9258 9.21789 12.5 11.875 12.5Z" fill="white"/>
</svg>
