<svg width="60" height="60" viewBox="0 0 60 60" fill="none" xmlns="http://www.w3.org/2000/svg">
<rect width="60" height="60" fill="#F2C94C"/>
<path d="M27.8363 39.24C26.5763 39.24 25.4063 38.98 24.3263 38.46C23.2463 37.92 22.3763 37.17 21.7163 36.21L23.4563 34.17C24.6163 35.83 26.0763 36.66 27.8363 36.66C29.0163 36.66 29.9063 36.3 30.5063 35.58C31.1263 34.86 31.4363 33.8 31.4363 32.4V20.61H23.8463V18H34.4063V32.25C34.4063 34.57 33.8463 36.32 32.7263 37.5C31.6263 38.66 29.9963 39.24 27.8363 39.24ZM46.6372 39.24C45.0572 39.24 43.5272 39 42.0472 38.52C40.5872 38.02 39.4372 37.38 38.5972 36.6L39.7072 34.26C40.5072 34.98 41.5272 35.57 42.7672 36.03C44.0272 36.47 45.3172 36.69 46.6372 36.69C48.3772 36.69 49.6772 36.4 50.5372 35.82C51.3972 35.22 51.8272 34.43 51.8272 33.45C51.8272 32.73 51.5872 32.15 51.1072 31.71C50.6472 31.25 50.0672 30.9 49.3672 30.66C48.6872 30.42 47.7172 30.15 46.4572 29.85C44.8772 29.47 43.5972 29.09 42.6172 28.71C41.6572 28.33 40.8272 27.75 40.1272 26.97C39.4472 26.17 39.1072 25.1 39.1072 23.76C39.1072 22.64 39.3972 21.63 39.9772 20.73C40.5772 19.83 41.4772 19.11 42.6772 18.57C43.8772 18.03 45.3672 17.76 47.1472 17.76C48.3872 17.76 49.6072 17.92 50.8072 18.24C52.0072 18.56 53.0372 19.02 53.8972 19.62L52.9072 22.02C52.0272 21.46 51.0872 21.04 50.0872 20.76C49.0872 20.46 48.1072 20.31 47.1472 20.31C45.4472 20.31 44.1672 20.62 43.3072 21.24C42.4672 21.86 42.0472 22.66 42.0472 23.64C42.0472 24.36 42.2872 24.95 42.7672 25.41C43.2472 25.85 43.8372 26.2 44.5372 26.46C45.2572 26.7 46.2272 26.96 47.4472 27.24C49.0272 27.62 50.2972 28 51.2572 28.38C52.2172 28.76 53.0372 29.34 53.7172 30.12C54.4172 30.9 54.7672 31.95 54.7672 33.27C54.7672 34.37 54.4672 35.38 53.8672 36.3C53.2672 37.2 52.3572 37.92 51.1372 38.46C49.9172 38.98 48.4172 39.24 46.6372 39.24Z" fill="black"/>
<path d="M24.7218 52.848V54H15.8118L15.8118 41.4H24.4518V42.552H17.1438V47.034H23.6598V48.168H17.1438L17.1438 52.848H24.7218ZM36.4568 54L33.5768 49.95C33.2528 49.986 32.9168 50.004 32.5688 50.004H29.1848V54H27.8528L27.8528 41.4L32.5688 41.4C34.1768 41.4 35.4368 41.784 36.3488 42.552C37.2608 43.32 37.7168 44.376 37.7168 45.72C37.7168 46.704 37.4648 47.538 36.9608 48.222C36.4688 48.894 35.7608 49.38 34.8368 49.68L37.9148 54H36.4568ZM32.5328 48.87C33.7808 48.87 34.7348 48.594 35.3948 48.042C36.0548 47.49 36.3848 46.716 36.3848 45.72C36.3848 44.7 36.0548 43.92 35.3948 43.38C34.7348 42.828 33.7808 42.552 32.5328 42.552L29.1848 42.552L29.1848 48.87H32.5328ZM53.9466 41.4V54H52.6686V43.92L47.7186 52.398H47.0886L42.1386 43.974V54H40.8606V41.4H41.9586L47.4306 50.742L52.8486 41.4H53.9466Z" fill="black"/>
</svg>
