<svg width="45" height="45" viewBox="0 0 45 45" fill="none" xmlns="http://www.w3.org/2000/svg">
<path d="M43.5878 9.83782L35.1622 1.41218C34.258 0.507981 33.0316 6.68648e-06 31.7529 0H4.82143C2.15859 0 0 2.15859 0 4.82143V40.1786C0 42.8414 2.15859 45 4.82143 45H40.1786C42.8414 45 45 42.8414 45 40.1786V13.2471C45 11.9684 44.492 10.742 43.5878 9.83782ZM22.5 38.5714C18.9496 38.5714 16.0714 35.6932 16.0714 32.1429C16.0714 28.5925 18.9496 25.7143 22.5 25.7143C26.0504 25.7143 28.9286 28.5925 28.9286 32.1429C28.9286 35.6932 26.0504 38.5714 22.5 38.5714ZM32.1429 7.98348V18.0804C32.1429 18.746 31.6032 19.2857 30.9375 19.2857H7.63393C6.96827 19.2857 6.42857 18.746 6.42857 18.0804V7.63393C6.42857 6.96827 6.96827 6.42857 7.63393 6.42857H30.5879C30.9077 6.42857 31.2142 6.55554 31.4402 6.78164L31.7898 7.13119C31.9017 7.2431 31.9905 7.37597 32.0511 7.52221C32.1117 7.66845 32.1429 7.82519 32.1429 7.98348Z" fill="white"/>
</svg>
